<svg xmlns="http://www.w3.org/2000/svg" xmlns:xlink="http://www.w3.org/1999/xlink" xml:space="preserve" version="1.1" style="shape-rendering:geometricPrecision;text-rendering:geometricPrecision;image-rendering:optimizeQuality;" viewBox="0 0 846.66 846.66" x="0px" y="0px" fill-rule="evenodd" clip-rule="evenodd"><defs><style type="text/css">
   
    .fil0 {fill:black}
   
  </style></defs><g><path class="fil0" d="M429.01 19.42l0 0c-18.12,0 -34.3,8.74 -44.53,22.22l0 392.33 -22.69 0 0 -328.47c-10.23,-13.48 -26.41,-22.22 -44.53,-22.22l0 0c-30.74,0 -55.88,25.14 -55.88,55.87l0 345.38c-21.49,-41.38 -46.95,-70.74 -78.83,-96.12 -54.47,-43.36 -126.73,30.54 -81.44,84.13 31.64,37.43 76.72,95.61 82.18,129.06 8.52,52.15 34.59,157.3 113.22,209.3l0.06 0.04c14.06,10.24 31.33,16.31 49.96,16.31l173.09 0c-58.34,-29.94 -98.25,-90.69 -98.25,-160.76 0,-99.72 80.85,-180.58 180.58,-180.58 39.81,0 76.6,12.9 106.45,34.73l0 -36.11 0 -191.05c0,-30.73 -25.14,-55.87 -55.87,-55.87l-0.01 0c-17.55,0 -33.27,8.2 -43.53,20.95l0 175.41 -22.7 0 0 -327.13c-10.15,-14.24 -26.8,-23.56 -45.52,-23.56l0 0c-17.83,0 -33.79,8.46 -44.03,21.58l0 329.11 -22.7 0 0 -391.66c-10.2,-13.86 -26.6,-22.89 -45.03,-22.89zm172.94 489.19c87.19,0 157.88,70.68 157.88,157.88 0,87.2 -70.69,157.89 -157.88,157.89 -87.2,0 -157.89,-70.69 -157.89,-157.89 0,-87.2 70.69,-157.88 157.89,-157.88zm-66.21 75.63l66.21 66.21 66.2 -66.21 16.04 16.05 -66.2 66.2 66.2 66.21 -16.04 16.04 -66.2 -66.2 -66.21 66.2 -16.04 -16.04 66.2 -66.21 -66.2 -66.2 16.04 -16.05z"></path></g></svg>