<svg xmlns="http://www.w3.org/2000/svg" data-name="Layer 1" viewBox="0 0 48 48" x="0px" y="0px"><title>Delivery_expand</title><path d="M47.82,27.31a9,9,0,0,0-6.91-3.7h-.06a6.51,6.51,0,0,0-.88.06c-.14-.26-.31-.58-.47-.83L35,15.14h.46a1.13,1.13,0,0,0,.83-.37,3,3,0,0,0,.81-1.92A3.41,3.41,0,0,0,36.68,11a1.28,1.28,0,0,0-1-.61,4.1,4.1,0,0,0-2.25.53,4.48,4.48,0,0,0-1.33,1.27l-1.85,1.07a1,1,0,0,0-.43,1.32L30,15a1.05,1.05,0,0,0,1.36.58l.15-.06c.43.83,1.23,2.41,1.63,3.15,1.77,3.28,1.48,5.42.92,6.64-1.59,3.48-3.46,3.5-5.82,3.48H27.6c-2.5,0-3.81-.09-4.17-2.23A4,4,0,0,1,25,22.75a1.93,1.93,0,0,0,.7-1.5v-.42h.17a1.48,1.48,0,0,0,1.28-1.55V18a1.23,1.23,0,0,0-1.25-1.2H19.44a1.34,1.34,0,0,0-1.34,1.33v.53a1.06,1.06,0,0,0,.49.89l.18.18-.36.11h-.47V12.5a1.18,1.18,0,0,0-1.17-1.19H8A1.18,1.18,0,0,0,6.85,12.5v2.87H4a.75.75,0,1,0,0,1.5H9a.75.75,0,1,0,0-1.5H8.35V12.81h1.91v2a.77.77,0,0,0,.75.75h2.78a.77.77,0,0,0,.75-.75v-2h1.9v7H8.35V18.49a.75.75,0,0,0-1.5,0v1.67A1.18,1.18,0,0,0,8,21.33a7.21,7.21,0,0,0-.91,1,.75.75,0,0,0,.15,1.05.84.84,0,0,0,.51.14h0c1.45-.08,3-.15,4.63-.15,3,0,5.36.63,6.4,1.65a3.82,3.82,0,0,1,.47,4.57.75.75,0,0,0,.29,1,.65.65,0,0,0,.36.1.76.76,0,0,0,.66-.38A5.32,5.32,0,0,0,19.8,24c-1.83-1.79-5.46-2.07-7.46-2.08-1,0-1.85,0-2.72,0a3.66,3.66,0,0,1,1.25-.58h7.61a1.64,1.64,0,0,0,.32-.05l1.61-.5a.74.74,0,0,0,.3-1.25L19.6,18.45V18.3h6v1h-.67a.76.76,0,0,0-.75.75v1.17a.48.48,0,0,1-.16.35,5.55,5.55,0,0,0-2.12,5.16c.59,3.5,3.4,3.49,5.66,3.48h.63c2.45,0,5.2,0,7.19-4.36.69-1.52,1.09-4.15-1-8-.55-1-1.89-3.66-1.89-3.66l-.06-.1a.83.83,0,0,0-.3-.26l.76-.44a1.22,1.22,0,0,0,.38-.37,2.88,2.88,0,0,1,.9-.87,2.46,2.46,0,0,1,1.25-.3,1.83,1.83,0,0,1,.19.89,1.53,1.53,0,0,1-.32.85h-.73a1.67,1.67,0,0,0-1.09.4.91.91,0,0,0-.18,1.14l4.89,8.43c.31.5.69,1.23.69,1.24a.74.74,0,0,0,.87.38,5,5,0,0,1,1.09-.12h0a7.13,7.13,0,0,1,4.81,2.08h-2.3l-.86.07a14.17,14.17,0,0,0-2.24.38,19,19,0,0,0-3,1.13,33.39,33.39,0,0,0-3.08,1.61,9.68,9.68,0,0,1-3.94,1.06H5.83a18.49,18.49,0,0,1,.62-4.62L6.8,25.6H8.5a.75.75,0,0,0,0-1.5H.75a.75.75,0,0,0,0,1.5H5.23L5,26.44A18.94,18.94,0,0,0,4.35,32a1,1,0,0,0,1,1H6.71a5.38,5.38,0,0,0,10.66,0H30.31A11,11,0,0,0,35,31.7c.23-.14.63-.37,1.15-.64A5.29,5.29,0,0,0,36,32.18a5.41,5.41,0,1,0,9.54-3.49,12.75,12.75,0,0,1,1.45.07.93.93,0,0,0,.86-.47A.91.91,0,0,0,47.82,27.31ZM13,14.09H11.76V12.81H13Zm-1,22A3.92,3.92,0,0,1,8.21,33h7.66A3.92,3.92,0,0,1,12,36.1Zm29.41,0a3.92,3.92,0,0,1-3.91-3.92,3.82,3.82,0,0,1,.6-2.08,9.39,9.39,0,0,1,2.57-1,7.05,7.05,0,0,1,2.64-.24,3.92,3.92,0,0,1,1.56,5.32,3.79,3.79,0,0,1-3.42,1.89Z"></path></svg>