<svg xmlns="http://www.w3.org/2000/svg" xmlns:xlink="http://www.w3.org/1999/xlink" version="1.1" x="0px" y="0px" viewBox="0 0 100 100" enable-background="new 0 0 100 100" xml:space="preserve"><path d="M76.4,96.7c0.7-6.1,4.1-36.8,5.7-38.9c0-0.1,0.1-0.1,0.1-0.2c0.3-0.9,1.6-6.7-2.2-9.7c-1-0.8-9.7-10.3-14.6-14.8V12.5  c0-5.1-4.1-9.2-9.2-9.2H25.9c-4.7,0-8.6,3.9-8.6,8.6v48.2c0,5.1,4.1,9.2,9.2,9.2h8.9h2.3c0.4,0,0.6-0.3,0.6-0.7l-0.5-4.2  c0-0.3-0.3-0.5-0.6-0.5h-0.9h-0.6c-0.3,0-0.6-0.3-0.6-0.6V8.6c0-0.3,0.3-0.6,0.6-0.6h20.6c2,0,3.7,1.7,3.7,3.7v44.8v4.4  c0,1.4-1,2.6-2.3,3c-2.2-1.2-4.9-6.4-5.3-7.2c0-0.1,0-0.1-0.1-0.2c-0.1-1.3-1.6-14.1-8.4-14.1c-0.2,0-0.4,0-0.6,0  c0,0-5.4,0.5-0.9,15.9c0,0,0,0.1,0,0.1l2,17.2c0,0,0,0,0,0.1c0.2,0.6,2.4,9.4,8.3,15.6c0.1,0.1,0.2,0.3,0.2,0.4l0.6,4.9H76.4z   M27,63.4c0,0.3-0.3,0.6-0.6,0.6c-2,0-3.7-1.7-3.7-3.7V11.7c0-2,1.7-3.7,3.7-3.7C26.7,8,27,8.2,27,8.6V63.4z"></path></svg>